<?xml version="1.0" encoding="UTF-8"?>
<svg xmlns="http://www.w3.org/2000/svg" xmlns:xlink="http://www.w3.org/1999/xlink" viewBox="0 0 24 24" version="1.1" width="50px" height="50px">
<g id="surface1">
<path style=" " d="M 12 2 C 6.5 2 2 6.5 2 12 C 2 17.5 6.5 22 12 22 C 17.5 22 22 17.5 22 12 C 22 6.5 17.5 2 12 2 Z M 12 4 C 16.398438 4 20 7.601563 20 12 C 20 16.398438 16.398438 20 12 20 C 7.601563 20 4 16.398438 4 12 C 4 7.601563 7.601563 4 12 4 Z M 11.90625 7 C 8.605469 7 9 10 9 10 L 11 10 C 11 8.601563 11.699219 8.5 12 8.5 C 12.800781 8.5 13 9.414063 13 9.8125 C 13 11.914063 11 11.398438 11 14 L 13 14 C 13 12.300781 15 12.210938 15 9.8125 C 15 8.914063 14.507813 7 11.90625 7 Z M 11 15 L 11 17 L 13 17 L 13 15 Z "/>
</g>
</svg>
