<svg xmlns="http://www.w3.org/2000/svg" xmlns:xlink="http://www.w3.org/1999/xlink" width="127" height="32" viewBox="0 0 127 32"><defs><path id="a" d="M0 0h32.042v32H0z"/></defs><g fill="none" fill-rule="evenodd"><path fill="#E44332" d="M54.778 19.28c0 .52.087 1.02.26 1.5a3.767 3.767 0 0 0 1.977 2.167c.473.222 1.01.333 1.61.333.6 0 1.136-.11 1.61-.333.47-.22.875-.517 1.213-.888.335-.372.59-.797.763-1.28.172-.48.258-.98.258-1.5 0-.516-.086-1.018-.257-1.5a3.8 3.8 0 0 0-.762-1.277 3.82 3.82 0 0 0-1.214-.888 3.747 3.747 0 0 0-1.61-.335c-.598 0-1.136.113-1.61.335a3.77 3.77 0 0 0-1.976 2.165c-.173.482-.26.984-.26 1.5m-3.204.16c0-1.06.19-2.025.567-2.89a6.758 6.758 0 0 1 1.534-2.222 6.752 6.752 0 0 1 2.29-1.426 7.92 7.92 0 0 1 2.82-.502c.993 0 1.933.168 2.817.502a6.805 6.805 0 0 1 2.294 1.426 6.783 6.783 0 0 1 1.533 2.22c.377.867.566 1.83.566 2.893 0 1.063-.19 2.027-.566 2.893a6.752 6.752 0 0 1-1.533 2.22 6.761 6.761 0 0 1-2.293 1.425 7.855 7.855 0 0 1-2.816.502 7.876 7.876 0 0 1-2.82-.502 6.717 6.717 0 0 1-2.29-1.424 6.728 6.728 0 0 1-1.533-2.22c-.377-.867-.566-1.83-.566-2.893m19.22-.161c0 .52.086 1.02.26 1.5.172.483.425.908.762 1.28.338.37.742.666 1.214.887.473.222 1.01.333 1.61.333.6 0 1.136-.11 1.61-.333.47-.22.876-.517 1.212-.888.336-.372.59-.797.764-1.28.17-.48.257-.98.257-1.5 0-.516-.087-1.018-.258-1.5a3.806 3.806 0 0 0-.764-1.277 3.782 3.782 0 0 0-1.213-.888 3.747 3.747 0 0 0-1.61-.335c-.6 0-1.136.113-1.61.335a3.768 3.768 0 0 0-1.976 2.165c-.174.482-.26.984-.26 1.5zm8.04 4.57h-.056c-.483.808-1.13 1.395-1.948 1.762a6.416 6.416 0 0 1-2.644.548c-1.04 0-1.962-.177-2.77-.535a6.215 6.215 0 0 1-2.074-1.472 6.29 6.29 0 0 1-1.31-2.2 8.142 8.142 0 0 1-.443-2.72c0-.972.156-1.88.474-2.724a6.69 6.69 0 0 1 1.32-2.2 6.072 6.072 0 0 1 2.045-1.47c.8-.36 1.672-.538 2.616-.538.633 0 1.19.065 1.673.192.483.13.908.293 1.28.497a4.86 4.86 0 0 1 1.587 1.319h.083V7.037c0-.33.264-.718.728-.718h1.888c.436 0 .726.362.726.718v18.074c0 .46-.394.72-.726.72H79.57a.733.733 0 0 1-.73-.72V23.85zm8.62-4.57c0 .52.088 1.02.26 1.5.174.483.427.908.765 1.28.337.37.74.666 1.214.887.47.222 1.01.333 1.608.333.6 0 1.136-.11 1.61-.333.472-.22.875-.517 1.213-.888.336-.372.59-.797.764-1.28.17-.48.257-.98.257-1.5 0-.516-.085-1.018-.256-1.5a3.82 3.82 0 0 0-.763-1.277 3.793 3.793 0 0 0-1.213-.888 3.747 3.747 0 0 0-1.61-.335c-.598 0-1.136.113-1.608.335a3.776 3.776 0 0 0-1.979 2.165 4.44 4.44 0 0 0-.26 1.5m-3.203.16c0-1.06.19-2.025.567-2.89a6.726 6.726 0 0 1 1.533-2.222 6.752 6.752 0 0 1 2.29-1.426 7.92 7.92 0 0 1 2.82-.502c.993 0 1.933.168 2.816.502a6.79 6.79 0 0 1 2.293 1.426 6.768 6.768 0 0 1 1.533 2.22c.377.867.566 1.83.566 2.893 0 1.063-.19 2.027-.567 2.893a6.77 6.77 0 0 1-1.534 2.22 6.751 6.751 0 0 1-2.293 1.425 7.855 7.855 0 0 1-2.816.502 7.876 7.876 0 0 1-2.82-.502 6.717 6.717 0 0 1-2.29-1.424 6.728 6.728 0 0 1-1.533-2.22c-.378-.867-.567-1.83-.567-2.893M100.278 7.92c0-.516.194-.963.58-1.347.39-.382.88-.573 1.475-.573.595 0 1.096.182 1.5.547.406.364.61.822.61 1.373 0 .55-.204 1.01-.61 1.373-.404.365-.905.547-1.5.547-.594 0-1.084-.19-1.474-.575-.388-.382-.582-.83-.582-1.345m13.758 8.53c-.33 0-.57-.252-.613-.362-.274-.73-1.148-1.005-1.854-1.005-1.113 0-1.986.524-1.986 1.425 0 .872.845 1.05 1.367 1.21.572.177 1.667.42 2.27.564.614.146 1.185.36 1.72.643 1.75.924 2 2.378 2 3.254 0 3.228-3.15 4.3-5.336 4.3-1.686 0-4.853-.26-5.548-3.525-.068-.317.21-.806.718-.806h1.82c.36 0 .6.265.67.473.236.657.98 1.152 2.234 1.152 1.346 0 2.142-.542 2.142-1.263 0-.466-.26-.882-.6-1.115-1.02-.704-3.545-.783-4.915-1.524-.525-.283-1.842-.932-1.842-3.142 0-3.045 2.726-4.33 5.12-4.33 3.532 0 4.828 2.267 4.974 3.107.08.464-.175.944-.688.944h-1.655zm3.225-1.825V13.25c0-.33.263-.723.73-.723h1.798V9.15c0-.362.25-.582.437-.663.11-.048 1.118-.48 1.92-.827.563-.227 1.017.23 1.017.668v4.2h2.977c.46 0 .733.394.733.722v1.377c0 .4-.362.725-.733.725h-2.978v5.82c0 .666-.02 1.186.24 1.57.235.353.582.483 1.277.483.198 0 .376-.033.526-.083.44-.15.77.105.883.32.218.417.47.877.646 1.207a.735.735 0 0 1-.316.994c-.57.274-1.362.496-2.447.496-.9 0-1.408-.097-1.977-.29a3.397 3.397 0 0 1-1.44-1.004c-.33-.396-.494-.928-.615-1.52-.123-.59-.152-1.307-.152-2.084v-5.91h-1.794c-.47 0-.733-.402-.733-.727m-75.939.001V13.25c0-.33.256-.723.71-.723h2.002V9.15c0-.362.242-.582.426-.663.108-.048 1.088-.48 1.87-.827.548-.227.99.23.99.668v4.2h2.9c.448 0 .715.394.715.722v1.377c0 .4-.353.725-.714.725h-2.9v5.82c0 .666-.02 1.186.23 1.57.23.353.57.483 1.246.483.194 0 .367-.033.514-.083.43-.15.75.105.86.32.213.417.458.877.63 1.207.188.36.036.825-.31.994-.555.274-1.325.496-2.38.496-.877 0-1.373-.097-1.927-.29a3.313 3.313 0 0 1-1.404-1.004c-.322-.396-.48-.928-.6-1.52-.12-.59-.148-1.307-.148-2.084v-5.91h-1.997c-.46 0-.715-.402-.715-.727m60.298 11.216h1.81c.384 0 .697-.32.697-.713V13.433a.707.707 0 0 0-.696-.713h-1.81a.706.706 0 0 0-.698.713v11.694c0 .392.312.713.696.713"/><mask id="b" fill="#fff"><use xlink:href="#a"/></mask><path fill="#E44332" d="M28.037 0H4.005A4.014 4.014 0 0 0 0 4v24c0 2.2 1.802 4 4.005 4h24.032c2.203 0 4.005-1.8 4.005-4V4c0-2.2-1.802-4-4.005-4" mask="url(#b)"/><path fill="#FFF" d="M6.792 15.157c.56-.327 12.59-7.318 12.865-7.48.275-.16.29-.652-.02-.83-.308-.177-.893-.513-1.11-.642a1.007 1.007 0 0 0-.992.012c-.154.09-10.433 6.06-10.776 6.256-.413.236-.92.24-1.33 0L0 9.287v2.708c1.32.778 4.607 2.71 5.403 3.165.475.27.93.264 1.39-.003"/><path fill="#FFF" d="M6.792 20.277c.56-.327 12.59-7.318 12.865-7.48.275-.16.29-.652-.02-.83-.308-.177-.893-.513-1.11-.642a1.007 1.007 0 0 0-.992.012c-.154.09-10.433 6.06-10.776 6.256-.413.236-.92.24-1.33 0L0 14.407v2.708c1.32.778 4.607 2.71 5.403 3.165.475.27.93.264 1.39-.003"/><path fill="#FFF" d="M6.792 25.717c.56-.327 12.59-7.318 12.865-7.48.275-.16.29-.652-.02-.83-.308-.177-.893-.513-1.11-.642a1.007 1.007 0 0 0-.992.012c-.154.09-10.433 6.06-10.776 6.256-.413.236-.92.24-1.33 0L0 19.847v2.708c1.32.778 4.607 2.71 5.403 3.165.475.27.93.264 1.39-.003"/></g></svg>